<svg width="198" height="198" viewBox="0 0 198 198" fill="none" xmlns="http://www.w3.org/2000/svg">
<path d="M95 161.667C131.819 161.667 161.667 131.819 161.667 95C161.667 58.181 131.819 28.3333 95 28.3333C58.181 28.3333 28.3333 58.181 28.3333 95C28.3333 131.819 58.181 161.667 95 161.667Z" fill="url(#paint0_linear_1439_3349)"/>
<g filter="url(#filter0_f_1439_3349)">
<path d="M99.058 143.696C123.711 143.696 143.696 123.711 143.696 99.058C143.696 74.4053 123.711 54.4203 99.058 54.4203C74.4053 54.4203 54.4203 74.4053 54.4203 99.058C54.4203 123.711 74.4053 143.696 99.058 143.696Z" fill="url(#paint1_linear_1439_3349)"/>
</g>
<path fill-rule="evenodd" clip-rule="evenodd" d="M50.9979 67.5102C52.1133 67.5102 53.0174 66.606 53.0174 65.4907C53.0174 64.3754 52.1133 63.4712 50.9979 63.4712C49.8826 63.4712 48.9784 64.3754 48.9784 65.4907C48.9784 66.606 49.8826 67.5102 50.9979 67.5102ZM50.9979 69.0249C52.9498 69.0249 54.5321 67.4425 54.5321 65.4907C54.5321 63.5388 52.9498 61.9565 50.9979 61.9565C49.0461 61.9565 47.4637 63.5388 47.4637 65.4907C47.4637 67.4425 49.0461 69.0249 50.9979 69.0249Z" fill="white"/>
<path fill-rule="evenodd" clip-rule="evenodd" d="M44.6211 130.119C45.7365 130.119 46.6407 129.214 46.6407 128.099C46.6407 126.984 45.7365 126.08 44.6211 126.08C43.5058 126.08 42.6016 126.984 42.6016 128.099C42.6016 129.214 43.5058 130.119 44.6211 130.119ZM44.6211 131.634C46.573 131.634 48.1553 130.051 48.1553 128.099C48.1553 126.147 46.573 124.565 44.6211 124.565C42.6693 124.565 41.087 126.147 41.087 128.099C41.087 130.051 42.6693 131.634 44.6211 131.634Z" fill="white"/>
<path fill-rule="evenodd" clip-rule="evenodd" d="M138.534 44.9015C139.649 44.9015 140.554 43.9973 140.554 42.882C140.554 41.7667 139.649 40.8625 138.534 40.8625C137.419 40.8625 136.515 41.7667 136.515 42.882C136.515 43.9973 137.419 44.9015 138.534 44.9015ZM138.534 46.4162C140.486 46.4162 142.068 44.8339 142.068 42.882C142.068 40.9301 140.486 39.3478 138.534 39.3478C136.582 39.3478 135 40.9301 135 42.882C135 44.8339 136.582 46.4162 138.534 46.4162Z" fill="white"/>
<path d="M52.9077 39.4572C53.0562 38.8419 53.9315 38.8419 54.0801 39.4572L54.58 41.5283C54.6331 41.7482 54.8048 41.9199 55.0247 41.973L57.0958 42.4729C57.7111 42.6215 57.7111 43.4968 57.0958 43.6453L55.0247 44.1452C54.8048 44.1983 54.6331 44.37 54.58 44.5899L54.0801 46.661C53.9315 47.2764 53.0562 47.2764 52.9077 46.661L52.4078 44.5899C52.3547 44.37 52.183 44.1983 51.9631 44.1452L49.892 43.6453C49.2766 43.4968 49.2766 42.6215 49.892 42.4729L51.9631 41.973C52.183 41.9199 52.3547 41.7482 52.4078 41.5283L52.9077 39.4572Z" fill="white"/>
<path d="M146.185 60.5602C146.347 59.8857 147.307 59.8857 147.47 60.5602L148.018 62.8304C148.076 63.0714 148.264 63.2596 148.505 63.3178L150.775 63.8658C151.45 64.0286 151.45 64.988 150.775 65.1509L148.505 65.6989C148.264 65.7571 148.076 65.9453 148.018 66.1863L147.47 68.4565C147.307 69.131 146.347 69.131 146.185 68.4565L145.637 66.1863C145.579 65.9453 145.39 65.7571 145.149 65.6989L142.879 65.1509C142.205 64.988 142.205 64.0286 142.879 63.8658L145.149 63.3178C145.39 63.2596 145.579 63.0714 145.637 62.8304L146.185 60.5602Z" fill="url(#paint2_linear_1439_3349)"/>
<path d="M46.9021 143.254C47.6697 143.131 48.2824 143.884 48.0051 144.611L46.1332 149.512C45.8559 150.239 44.8964 150.392 44.4062 149.789L41.0973 145.717C40.607 145.114 40.9537 144.206 41.7212 144.083L46.9021 143.254Z" fill="url(#paint3_linear_1439_3349)"/>
<path d="M137.306 132.105C137.114 131.352 137.809 130.673 138.558 130.883L143.609 132.303C144.357 132.513 144.598 133.455 144.041 133.998L140.286 137.662C139.73 138.206 138.795 137.942 138.602 137.189L137.306 132.105Z" fill="url(#paint4_linear_1439_3349)"/>
<g filter="url(#filter1_f_1439_3349)">
<path d="M130.377 146.285C130.377 149.861 113.41 152.761 92.48 152.761C71.5501 152.761 54.5831 149.861 54.5831 146.285C54.5831 142.708 71.5501 139.809 92.48 139.809C113.41 139.809 130.377 142.708 130.377 146.285Z" fill="url(#paint5_radial_1439_3349)"/>
</g>
<g filter="url(#filter2_i_1439_3349)">
<path d="M93.2174 53.3135L68.5342 57.6658C66.5512 58.0155 65.2272 59.9064 65.5768 61.8894L71.7977 97.1699C72.1474 99.1531 74.0384 100.477 76.0213 100.127L100.704 95.7752C102.688 95.4256 104.012 93.5346 103.662 91.5514L97.4412 56.2709C97.0911 54.2879 95.2001 52.9638 93.2174 53.3135Z" fill="url(#paint6_linear_1439_3349)"/>
</g>
<path d="M93.5746 71.4494L74.4003 74.8304C73.7546 74.9442 73.3235 75.5599 73.4374 76.2056L73.4381 76.2094C73.5519 76.8551 74.1676 77.2862 74.8132 77.1723L93.9879 73.7914C94.6331 73.6775 95.0644 73.0618 94.9508 72.4161L94.9502 72.4123C94.836 71.7667 94.2204 71.3355 93.5746 71.4494Z" fill="url(#paint7_linear_1439_3349)"/>
<path d="M96.4914 87.9261L77.4819 91.278C76.8418 91.3911 76.4123 91.9893 76.5226 92.6148L76.5232 92.6189C76.6335 93.2444 77.2419 93.6601 77.882 93.547L96.8914 90.1951C97.532 90.0821 97.961 89.4838 97.8509 88.8583L97.8503 88.8543C97.7401 88.2288 97.1314 87.8131 96.4914 87.9261Z" fill="url(#paint8_linear_1439_3349)"/>
<path d="M94.9717 79.3052L75.9619 82.6571C75.3218 82.7701 74.8922 83.3684 75.0026 83.9939L75.0032 83.9979C75.1135 84.6234 75.7218 85.0391 76.3619 84.926L95.3717 81.5742C96.0117 81.4611 96.4413 80.8626 96.3311 80.2371L96.3306 80.2334C96.2198 79.6079 95.6117 79.1923 94.9717 79.3052Z" fill="url(#paint9_linear_1439_3349)"/>
<path d="M79.2597 61.3926L73.6564 62.3806C72.4152 62.5995 71.5865 63.7831 71.8053 65.0243L72.0795 66.5793C72.2984 67.8204 73.4819 68.6492 74.7232 68.4303L80.3264 67.4423C81.5675 67.2235 82.3965 66.0399 82.1774 64.7987L81.9032 63.2437C81.6846 62.0025 80.5008 61.1738 79.2597 61.3926Z" fill="#A259FF"/>
<g filter="url(#filter3_i_1439_3349)">
<path d="M122.634 63.0423H89.9762C88.4545 63.0423 87.2209 64.276 87.2209 65.7978V81.1479C87.2209 82.6696 88.4545 83.9032 89.9762 83.9032H122.634C124.155 83.9032 125.389 82.6696 125.389 81.1479V65.7978C125.389 64.276 124.155 63.0423 122.634 63.0423Z" fill="url(#paint10_linear_1439_3349)"/>
</g>
<path d="M95.2812 76.638C97.0307 76.638 98.4493 75.2197 98.4493 73.4701C98.4493 71.7206 97.0307 70.3023 95.2812 70.3023C93.5316 70.3023 92.1136 71.7206 92.1136 73.4701C92.1136 75.2197 93.5316 76.638 95.2812 76.638Z" fill="white"/>
<path d="M106.602 76.638C108.352 76.638 109.77 75.2197 109.77 73.4701C109.77 71.7206 108.352 70.3023 106.602 70.3023C104.853 70.3023 103.434 71.7206 103.434 73.4701C103.434 75.2197 104.853 76.638 106.602 76.638Z" fill="white"/>
<path d="M117.923 76.638C119.673 76.638 121.091 75.2197 121.091 73.4701C121.091 71.7206 119.673 70.3023 117.923 70.3023C116.173 70.3023 114.755 71.7206 114.755 73.4701C114.755 75.2197 116.173 76.638 117.923 76.638Z" fill="white"/>
<path fill-rule="evenodd" clip-rule="evenodd" d="M89.3288 118.196C89.6024 116.643 91.083 115.607 92.6361 115.881L108.949 118.757C111.178 119.15 113.192 120.185 114.62 121.681C116.047 123.175 117.014 125.3 116.6 127.652C116.184 130.005 114.549 131.671 112.698 132.588C110.844 133.505 108.597 133.791 106.367 133.398L67.6064 126.563C66.0537 126.289 65.0169 124.808 65.2907 123.256C65.5645 121.703 67.0452 120.666 68.598 120.94L107.359 127.774C108.515 127.978 109.51 127.795 110.164 127.471C110.818 127.147 110.952 126.801 110.976 126.661C111.001 126.522 110.994 126.151 110.491 125.624C109.987 125.097 109.114 124.584 107.957 124.38L91.5775 120.922C90.0251 120.649 89.0546 119.749 89.3288 118.196Z" fill="url(#paint11_linear_1439_3349)"/>
<path fill-rule="evenodd" clip-rule="evenodd" d="M120.837 89.1311C121.45 87.8134 122.873 87.0726 124.304 87.3247L137.093 89.5798C138.839 89.8876 140.005 91.5526 139.697 93.2992C139.389 95.0453 137.724 96.2111 135.978 95.9033L125.617 94.076L119.496 107.214C118.748 108.822 116.838 109.517 115.23 108.769C113.623 108.02 112.927 106.11 113.676 104.503L120.837 89.1311Z" fill="url(#paint12_linear_1439_3349)"/>
<path d="M75.255 137.936C79.0379 138.604 82.6453 136.077 83.3125 132.295C83.9792 128.512 81.4534 124.905 77.6705 124.237C73.8876 123.57 70.2802 126.096 69.6132 129.879C68.9462 133.662 71.4721 137.269 75.255 137.936Z" fill="url(#paint13_linear_1439_3349)"/>
<path d="M117.887 94.9359L70.685 86.613C67.1467 85.9893 64.004 88.5296 64.2505 91.8101L64.8399 110.955C65.0188 113.325 66.9528 115.324 69.5082 115.775L110.653 125.807L122.166 102.031C124.819 97.2159 121.434 95.5614 117.887 94.9359Z" fill="url(#paint14_linear_1439_3349)"/>
<path d="M75.665 134.505C77.5654 134.84 79.3778 133.571 79.7129 131.671C80.048 129.771 78.779 127.958 76.8785 127.623C74.9779 127.288 73.1657 128.557 72.8305 130.458C72.4954 132.358 73.7644 134.17 75.665 134.505Z" fill="url(#paint15_linear_1439_3349)"/>
<mask id="mask0_1439_3349" style="mask-type:alpha" maskUnits="userSpaceOnUse" x="64" y="86" width="59" height="40">
<path d="M117.887 94.9359L70.6847 86.613C67.1464 85.9893 64.0037 88.5296 64.2502 91.8101L64.8396 110.955C65.0185 113.325 66.9525 115.324 69.5079 115.775L110.653 125.807L122.166 102.031C123.521 99.024 121.434 95.5614 117.887 94.9359Z" fill="url(#paint16_linear_1439_3349)"/>
</mask>
<g mask="url(#mask0_1439_3349)">
<path d="M95.0487 107.56C95.2533 106.476 96.2986 105.761 97.3832 105.961C98.4672 106.161 99.1803 107.202 98.9757 108.286L96.2736 122.577C96.069 123.661 95.0238 124.377 93.9397 124.176C92.8551 123.976 92.142 122.935 92.3467 121.852L95.0487 107.56Z" fill="#A259FF"/>
<path d="M130.311 98.265C131.216 98.4221 131.826 99.2841 131.672 100.19L131.561 100.846C131.408 101.753 130.549 102.359 129.643 102.202L63.6447 90.7398C62.7393 90.5821 62.1298 89.7201 62.2834 88.8146L62.3946 88.1583C62.5482 87.2522 63.4067 86.6453 64.3121 86.8024L130.311 98.265Z" fill="#A259FF"/>
<path d="M106.156 109.567C106.361 108.484 107.406 107.768 108.49 107.968C109.575 108.169 110.288 109.21 110.082 110.293L107.381 124.585C107.176 125.668 106.131 126.384 105.046 126.184C103.962 125.984 103.249 124.943 103.454 123.859L106.156 109.567Z" fill="#A259FF"/>
<path d="M83.9432 105.553C84.1479 104.469 85.1931 103.753 86.2772 103.953C87.3618 104.154 88.0748 105.195 87.8696 106.278L85.1682 120.57C84.9635 121.653 83.9183 122.369 82.8337 122.169C81.7496 121.969 81.0365 120.928 81.2412 119.844L83.9432 105.553Z" fill="#A259FF"/>
<path d="M72.7091 103.572C72.914 102.489 73.9591 101.773 75.0434 101.973C76.1278 102.173 76.8408 103.215 76.636 104.298L73.9343 118.59C73.7295 119.673 72.6844 120.389 71.6 120.189C70.5156 119.988 69.8026 118.947 70.0074 117.864L72.7091 103.572Z" fill="#A259FF"/>
<path d="M62.9541 86.8141C63.1616 85.6373 64.2835 84.8517 65.46 85.0593L123.141 95.2297C124.317 95.4373 125.103 96.5596 124.895 97.7358C124.688 98.9126 123.566 99.6981 122.39 99.4906L64.7088 89.3196C63.5323 89.1126 62.7467 87.9903 62.9541 86.8141Z" fill="url(#paint17_linear_1439_3349)"/>
</g>
<defs>
<filter id="filter0_f_1439_3349" x="0.420288" y="0.420288" width="197.275" height="197.275" filterUnits="userSpaceOnUse" color-interpolation-filters="sRGB">
<feFlood flood-opacity="0" result="BackgroundImageFix"/>
<feBlend mode="normal" in="SourceGraphic" in2="BackgroundImageFix" result="shape"/>
<feGaussianBlur stdDeviation="27" result="effect1_foregroundBlur_1439_3349"/>
</filter>
<filter id="filter1_f_1439_3349" x="33.8957" y="119.121" width="117.169" height="54.3267" filterUnits="userSpaceOnUse" color-interpolation-filters="sRGB">
<feFlood flood-opacity="0" result="BackgroundImageFix"/>
<feBlend mode="normal" in="SourceGraphic" in2="BackgroundImageFix" result="shape"/>
<feGaussianBlur stdDeviation="10.3437" result="effect1_foregroundBlur_1439_3349"/>
</filter>
<filter id="filter2_i_1439_3349" x="65.5208" y="53.2575" width="40.5818" height="52.4897" filterUnits="userSpaceOnUse" color-interpolation-filters="sRGB">
<feFlood flood-opacity="0" result="BackgroundImageFix"/>
<feBlend mode="normal" in="SourceGraphic" in2="BackgroundImageFix" result="shape"/>
<feColorMatrix in="SourceAlpha" type="matrix" values="0 0 0 0 0 0 0 0 0 0 0 0 0 0 0 0 0 0 127 0" result="hardAlpha"/>
<feOffset dx="2.38455" dy="5.56394"/>
<feGaussianBlur stdDeviation="5.96137"/>
<feComposite in2="hardAlpha" operator="arithmetic" k2="-1" k3="1"/>
<feColorMatrix type="matrix" values="0 0 0 0 0.104618 0 0 0 0 0.465612 0 0 0 0 0.545833 0 0 0 0.15 0"/>
<feBlend mode="normal" in2="shape" result="effect1_innerShadow_1439_3349"/>
</filter>
<filter id="filter3_i_1439_3349" x="87.2209" y="63.0423" width="43.794" height="24.6114" filterUnits="userSpaceOnUse" color-interpolation-filters="sRGB">
<feFlood flood-opacity="0" result="BackgroundImageFix"/>
<feBlend mode="normal" in="SourceGraphic" in2="BackgroundImageFix" result="shape"/>
<feColorMatrix in="SourceAlpha" type="matrix" values="0 0 0 0 0 0 0 0 0 0 0 0 0 0 0 0 0 0 127 0" result="hardAlpha"/>
<feOffset dx="5.62585" dy="3.75056"/>
<feGaussianBlur stdDeviation="6.09467"/>
<feComposite in2="hardAlpha" operator="arithmetic" k2="-1" k3="1"/>
<feColorMatrix type="matrix" values="0 0 0 0 0.104618 0 0 0 0 0.465612 0 0 0 0 0.545833 0 0 0 0.09 0"/>
<feBlend mode="normal" in2="shape" result="effect1_innerShadow_1439_3349"/>
</filter>
<linearGradient id="paint0_linear_1439_3349" x1="46.9324" y1="28.3334" x2="148.694" y2="49.5165" gradientUnits="userSpaceOnUse">
<stop stop-color="#A259FF"/>
<stop offset="1" stop-color="#3B3B3B"/>
</linearGradient>
<linearGradient id="paint1_linear_1439_3349" x1="118.188" y1="135.193" x2="88.4174" y2="131.799" gradientUnits="userSpaceOnUse">
<stop stop-color="#A259FF" stop-opacity="0"/>
<stop offset="1" stop-color="#FF6250"/>
</linearGradient>
<linearGradient id="paint2_linear_1439_3349" x1="148.732" y1="62.0339" x2="157.271" y2="68.7409" gradientUnits="userSpaceOnUse">
<stop stop-color="#A259FF"/>
<stop offset="1" stop-color="#377DF7"/>
</linearGradient>
<linearGradient id="paint3_linear_1439_3349" x1="47.6937" y1="145.74" x2="47.4084" y2="154.236" gradientUnits="userSpaceOnUse">
<stop stop-color="#A259FF"/>
<stop offset="1" stop-color="#377DF7"/>
</linearGradient>
<linearGradient id="paint4_linear_1439_3349" x1="139.71" y1="131.091" x2="148.197" y2="130.604" gradientUnits="userSpaceOnUse">
<stop stop-color="#A259FF"/>
<stop offset="1" stop-color="#377DF7"/>
</linearGradient>
<radialGradient id="paint5_radial_1439_3349" cx="0" cy="0" r="1" gradientUnits="userSpaceOnUse" gradientTransform="translate(92.48 146.285) rotate(90) scale(6.47606 37.8971)">
<stop stop-color="#2B2B2B"/>
<stop offset="1" stop-color="#2B2B2B" stop-opacity="0"/>
</radialGradient>
<linearGradient id="paint6_linear_1439_3349" x1="70.1027" y1="57.3892" x2="102.205" y2="56.3999" gradientUnits="userSpaceOnUse">
<stop stop-color="#A259FF"/>
<stop offset="1" stop-color="#3B3B3B"/>
</linearGradient>
<linearGradient id="paint7_linear_1439_3349" x1="90.6934" y1="73.6892" x2="88.5862" y2="67.443" gradientUnits="userSpaceOnUse">
<stop stop-color="#A259FF"/>
<stop offset="0.666667" stop-color="white"/>
</linearGradient>
<linearGradient id="paint8_linear_1439_3349" x1="93.6283" y1="90.1088" x2="91.6062" y2="84.0473" gradientUnits="userSpaceOnUse">
<stop stop-color="#A259FF"/>
<stop offset="0.666667" stop-color="white"/>
</linearGradient>
<linearGradient id="paint9_linear_1439_3349" x1="92.108" y1="81.4878" x2="90.0859" y2="75.4263" gradientUnits="userSpaceOnUse">
<stop stop-color="#A259FF"/>
<stop offset="0.666667" stop-color="white"/>
</linearGradient>
<linearGradient id="paint10_linear_1439_3349" x1="87.2209" y1="88.5896" x2="110.708" y2="53.3397" gradientUnits="userSpaceOnUse">
<stop stop-color="#A259FF"/>
<stop offset="1" stop-color="#FF6250"/>
</linearGradient>
<linearGradient id="paint11_linear_1439_3349" x1="105.832" y1="129.032" x2="97.7798" y2="91.2411" gradientUnits="userSpaceOnUse">
<stop stop-color="#A259FF"/>
<stop offset="0.666667" stop-color="white"/>
</linearGradient>
<linearGradient id="paint12_linear_1439_3349" x1="132.669" y1="93.9456" x2="151.256" y2="115.579" gradientUnits="userSpaceOnUse">
<stop stop-color="#A259FF"/>
<stop offset="1" stop-color="#377DF7"/>
</linearGradient>
<linearGradient id="paint13_linear_1439_3349" x1="80.0199" y1="134.78" x2="64.1329" y2="118.549" gradientUnits="userSpaceOnUse">
<stop stop-color="#A259FF"/>
<stop offset="0.666667" stop-color="white"/>
</linearGradient>
<linearGradient id="paint14_linear_1439_3349" x1="107.942" y1="116.234" x2="76.0082" y2="52.57" gradientUnits="userSpaceOnUse">
<stop stop-color="#A259FF"/>
<stop offset="0.666667" stop-color="white"/>
</linearGradient>
<linearGradient id="paint15_linear_1439_3349" x1="72.3207" y1="132.14" x2="82.236" y2="134.051" gradientUnits="userSpaceOnUse">
<stop stop-color="white"/>
<stop offset="1" stop-color="#BCF3FF"/>
</linearGradient>
<linearGradient id="paint16_linear_1439_3349" x1="63.8353" y1="92.9301" x2="122.295" y2="103.96" gradientUnits="userSpaceOnUse">
<stop stop-color="#AFF1FF"/>
<stop offset="1" stop-color="#65C8DE"/>
</linearGradient>
<linearGradient id="paint17_linear_1439_3349" x1="112.216" y1="96.4541" x2="113.167" y2="84.417" gradientUnits="userSpaceOnUse">
<stop stop-color="#A259FF"/>
<stop offset="0.666667" stop-color="white"/>
</linearGradient>
</defs>
</svg>
