<svg width="206" height="206" viewBox="0 0 206 206" fill="none" xmlns="http://www.w3.org/2000/svg">
<path d="M103 169.667C139.819 169.667 169.667 139.819 169.667 103C169.667 66.181 139.819 36.3333 103 36.3333C66.181 36.3333 36.3333 66.181 36.3333 103C36.3333 139.819 66.181 169.667 103 169.667Z" fill="url(#paint0_linear_1439_3322)"/>
<g filter="url(#filter0_f_1439_3322)">
<path d="M103 151.696C129.894 151.696 151.696 129.894 151.696 103C151.696 76.1061 129.894 54.3044 103 54.3044C76.1061 54.3044 54.3044 76.1061 54.3044 103C54.3044 129.894 76.1061 151.696 103 151.696Z" fill="url(#paint1_linear_1439_3322)"/>
</g>
<path fill-rule="evenodd" clip-rule="evenodd" d="M71.1718 52.9015C72.2872 52.9015 73.1914 51.9973 73.1914 50.882C73.1914 49.7667 72.2872 48.8625 71.1718 48.8625C70.0565 48.8625 69.1524 49.7667 69.1524 50.882C69.1524 51.9973 70.0565 52.9015 71.1718 52.9015ZM71.1718 54.4162C73.1237 54.4162 74.706 52.8339 74.706 50.882C74.706 48.9301 73.1237 47.3478 71.1718 47.3478C69.22 47.3478 67.6377 48.9301 67.6377 50.882C67.6377 52.8339 69.22 54.4162 71.1718 54.4162Z" fill="white"/>
<path fill-rule="evenodd" clip-rule="evenodd" d="M52.6211 138.119C53.7365 138.119 54.6406 137.214 54.6406 136.099C54.6406 134.984 53.7365 134.08 52.6211 134.08C51.5058 134.08 50.6016 134.984 50.6016 136.099C50.6016 137.214 51.5058 138.119 52.6211 138.119ZM52.6211 139.634C54.573 139.634 56.1553 138.051 56.1553 136.099C56.1553 134.147 54.573 132.565 52.6211 132.565C50.6693 132.565 49.0869 134.147 49.0869 136.099C49.0869 138.051 50.6693 139.634 52.6211 139.634Z" fill="white"/>
<path fill-rule="evenodd" clip-rule="evenodd" d="M154.07 81.3073C155.185 81.3073 156.09 80.4031 156.09 79.2878C156.09 78.1725 155.185 77.2683 154.07 77.2683C152.955 77.2683 152.051 78.1725 152.051 79.2878C152.051 80.4031 152.955 81.3073 154.07 81.3073ZM154.07 82.822C156.022 82.822 157.605 81.2394 157.605 79.2878C157.605 77.3359 156.022 75.7536 154.07 75.7536C152.118 75.7536 150.536 77.3359 150.536 79.2878C150.536 81.2394 152.118 82.822 154.07 82.822Z" fill="white"/>
<path d="M48.1542 53.2543C48.3027 52.639 49.178 52.639 49.3266 53.2543L49.8265 55.3254C49.8796 55.5453 50.0513 55.717 50.2712 55.7701L52.3423 56.27C52.9576 56.4186 52.9576 57.2939 52.3423 57.4424L50.2712 57.9423C50.0513 57.9954 49.8796 58.1671 49.8265 58.387L49.3266 60.4581C49.178 61.0735 48.3027 61.0735 48.1542 60.4581L47.6543 58.387C47.6012 58.1671 47.4295 57.9954 47.2096 57.9423L45.1385 57.4424C44.5231 57.2939 44.5231 56.4186 45.1385 56.27L47.2096 55.7701C47.4295 55.717 47.6012 55.5453 47.6543 55.3254L48.1542 53.2543Z" fill="white"/>
<path d="M155.924 52.9081C156.086 52.2336 157.046 52.2336 157.209 52.9081L157.757 55.1782C157.815 55.4192 158.003 55.6075 158.244 55.6657L160.514 56.2137C161.189 56.3765 161.189 57.3359 160.514 57.4987L158.244 58.0467C158.003 58.1049 157.815 58.2931 157.757 58.5341L157.209 60.8044C157.046 61.4788 156.086 61.4788 155.924 60.8044L155.376 58.5341C155.318 58.2931 155.129 58.1049 154.888 58.0467L152.618 57.4987C151.944 57.3359 151.944 56.3765 152.618 56.2137L154.888 55.6657C155.129 55.6075 155.318 55.4192 155.376 55.1782L155.924 52.9081Z" fill="url(#paint2_linear_1439_3322)"/>
<path d="M54.902 151.253C55.6696 151.13 56.2823 151.884 56.005 152.61L54.1331 157.512C53.8558 158.238 52.8963 158.392 52.4061 157.788L49.0972 153.717C48.607 153.114 48.9536 152.206 49.7212 152.083L54.902 151.253Z" fill="url(#paint3_linear_1439_3322)"/>
<path d="M147.045 137.787C146.853 137.033 147.548 136.355 148.297 136.565L153.348 137.984C154.096 138.195 154.337 139.136 153.78 139.679L150.026 143.344C149.469 143.887 148.534 143.624 148.341 142.871L147.045 137.787Z" fill="url(#paint4_linear_1439_3322)"/>
<path d="M128.802 112.197L83.7896 95.8127C80.3391 94.5571 76.5239 96.3362 75.2681 99.7867L64.6422 128.981C63.3864 132.431 65.1654 136.246 68.6158 137.502L113.629 153.886C117.079 155.141 120.894 153.362 122.15 149.912L132.776 120.718C134.032 117.267 132.253 113.452 128.802 112.197Z" fill="url(#paint5_linear_1439_3322)"/>
<path d="M126.975 121.239L140.272 102.086C142.366 99.0696 141.619 94.927 138.602 92.833L119.449 79.5361C116.433 77.4421 112.29 78.1897 110.197 81.2058L96.8997 100.359C94.8058 103.375 95.553 107.518 98.5693 109.612L117.722 122.908C120.739 125.002 124.881 124.254 126.975 121.239Z" fill="url(#paint6_linear_1439_3322)"/>
<path d="M111.837 105.996C111.024 107.117 109.461 107.365 108.34 106.551C107.219 105.738 106.971 104.175 107.784 103.054C108.598 101.933 110.161 101.685 111.282 102.499C112.403 103.312 112.651 104.875 111.837 105.996Z" fill="url(#paint7_linear_1439_3322)"/>
<path d="M119.237 95.7855L117.689 94.6632L110.301 104.852L111.848 105.974L119.237 95.7855Z" fill="url(#paint8_linear_1439_3322)"/>
<path d="M120.532 107.804C119.718 108.925 118.155 109.173 117.034 108.359C115.913 107.546 115.665 105.983 116.479 104.862C117.292 103.741 118.855 103.493 119.976 104.307C121.097 105.121 121.346 106.683 120.532 107.804Z" fill="url(#paint9_linear_1439_3322)"/>
<path d="M127.946 97.5878L126.398 96.4661L119.011 106.656L120.559 107.777L127.946 97.5878Z" fill="url(#paint10_linear_1439_3322)"/>
<path d="M127.926 97.6139L116.706 96.0255L117.692 94.6614L128.91 96.2551L127.926 97.6139Z" fill="url(#paint11_linear_1439_3322)"/>
<path d="M126.063 100.181L114.843 98.5925L115.828 97.2284L127.052 98.8238L126.063 100.181Z" fill="url(#paint12_linear_1439_3322)"/>
<path d="M117.129 78.8436L113.235 60.8031C112.46 57.214 108.922 54.9323 105.333 55.7071L81.7426 60.7989C78.1536 61.5736 75.8721 65.1112 76.6468 68.7003L80.5407 86.7409C81.3154 90.3298 84.8528 92.6116 88.4423 91.8371L112.032 86.7449C115.622 85.9704 117.903 82.433 117.129 78.8436Z" fill="url(#paint13_linear_1439_3322)"/>
<path d="M116.821 76.9893L103.598 66.3718L98.4852 76.4508L93.0997 73.346L85.6539 83.7107L80.069 84.9142L80.3349 86.1641C81.2325 90.313 85.3211 92.9525 89.4701 92.0545L111.19 87.3675C115.339 86.4701 117.979 82.3815 117.081 78.2326L116.815 76.9893H116.821Z" fill="url(#paint14_linear_1439_3322)"/>
<path opacity="0.9" d="M85.5206 72.1424C87.5884 72.0892 88.9246 70.0149 88.12 68.1135C87.6678 67.0497 86.5844 66.3517 85.4272 66.3782C83.36 66.4314 82.0232 68.5057 82.8278 70.4072C83.28 71.4709 84.3635 72.169 85.5206 72.1424Z" fill="white"/>
<path d="M121.454 148.843C120.534 152.711 116.448 154.912 112.712 153.552L67.7827 137.199C64.6109 136.045 62.8075 132.697 63.5886 129.413L69.9689 102.593C70.889 98.7252 74.975 96.5241 78.7107 97.8841L123.64 114.237C126.812 115.391 128.615 118.739 127.834 122.023L121.454 148.843Z" fill="url(#paint15_linear_1439_3322)"/>
<defs>
<filter id="filter0_f_1439_3322" x="0.304352" y="0.304352" width="205.391" height="205.391" filterUnits="userSpaceOnUse" color-interpolation-filters="sRGB">
<feFlood flood-opacity="0" result="BackgroundImageFix"/>
<feBlend mode="normal" in="SourceGraphic" in2="BackgroundImageFix" result="shape"/>
<feGaussianBlur stdDeviation="27" result="effect1_foregroundBlur_1439_3322"/>
</filter>
<linearGradient id="paint0_linear_1439_3322" x1="54.9324" y1="36.3333" x2="156.695" y2="57.5165" gradientUnits="userSpaceOnUse">
<stop stop-color="#A259FF"/>
<stop offset="1" stop-color="#3B3B3B"/>
</linearGradient>
<linearGradient id="paint1_linear_1439_3322" x1="159.232" y1="111.116" x2="122.997" y2="173.576" gradientUnits="userSpaceOnUse">
<stop stop-color="#A259FF" stop-opacity="0"/>
<stop offset="1" stop-color="#FF6250"/>
</linearGradient>
<linearGradient id="paint2_linear_1439_3322" x1="158.471" y1="54.3817" x2="167.01" y2="61.0888" gradientUnits="userSpaceOnUse">
<stop stop-color="#A259FF"/>
<stop offset="1" stop-color="#377DF7"/>
</linearGradient>
<linearGradient id="paint3_linear_1439_3322" x1="55.6936" y1="153.739" x2="55.4083" y2="162.235" gradientUnits="userSpaceOnUse">
<stop stop-color="#A259FF"/>
<stop offset="1" stop-color="#377DF7"/>
</linearGradient>
<linearGradient id="paint4_linear_1439_3322" x1="149.449" y1="136.773" x2="157.936" y2="136.286" gradientUnits="userSpaceOnUse">
<stop stop-color="#A259FF"/>
<stop offset="1" stop-color="#377DF7"/>
</linearGradient>
<linearGradient id="paint5_linear_1439_3322" x1="115.219" y1="117.744" x2="140.051" y2="177.092" gradientUnits="userSpaceOnUse">
<stop stop-color="#A259FF"/>
<stop offset="0.416667" stop-color="#A259FF" stop-opacity="0"/>
</linearGradient>
<linearGradient id="paint6_linear_1439_3322" x1="122.476" y1="113.452" x2="79.8172" y2="126.561" gradientUnits="userSpaceOnUse">
<stop stop-color="#FF7262"/>
<stop offset="0.317708" stop-color="#A259FF"/>
</linearGradient>
<linearGradient id="paint7_linear_1439_3322" x1="115.77" y1="94.3936" x2="120.498" y2="104.352" gradientUnits="userSpaceOnUse">
<stop stop-color="#3B3B3B"/>
<stop offset="1" stop-color="#A259FF"/>
</linearGradient>
<linearGradient id="paint8_linear_1439_3322" x1="132.472" y1="77.2933" x2="136.641" y2="81.3855" gradientUnits="userSpaceOnUse">
<stop stop-color="#3B3B3B"/>
<stop offset="1" stop-color="#A259FF"/>
</linearGradient>
<linearGradient id="paint9_linear_1439_3322" x1="124.464" y1="96.2023" x2="129.192" y2="106.161" gradientUnits="userSpaceOnUse">
<stop stop-color="#3B3B3B"/>
<stop offset="1" stop-color="#A259FF"/>
</linearGradient>
<linearGradient id="paint10_linear_1439_3322" x1="141.179" y1="79.0933" x2="145.348" y2="83.1849" gradientUnits="userSpaceOnUse">
<stop stop-color="#3B3B3B"/>
<stop offset="1" stop-color="#A259FF"/>
</linearGradient>
<linearGradient id="paint11_linear_1439_3322" x1="130.554" y1="89.2417" x2="130.383" y2="100.957" gradientUnits="userSpaceOnUse">
<stop stop-color="#3B3B3B"/>
<stop offset="1" stop-color="#A259FF"/>
</linearGradient>
<linearGradient id="paint12_linear_1439_3322" x1="128.695" y1="91.8105" x2="128.523" y2="103.525" gradientUnits="userSpaceOnUse">
<stop stop-color="#3B3B3B"/>
<stop offset="1" stop-color="#A259FF"/>
</linearGradient>
<linearGradient id="paint13_linear_1439_3322" x1="102.17" y1="60.6203" x2="109.699" y2="85.2261" gradientUnits="userSpaceOnUse">
<stop stop-color="#FF7262"/>
<stop offset="1" stop-color="#A259FF"/>
</linearGradient>
<linearGradient id="paint14_linear_1439_3322" x1="96.8516" y1="101.841" x2="88.6742" y2="71.6357" gradientUnits="userSpaceOnUse">
<stop stop-color="#A259FF"/>
<stop offset="1" stop-color="white"/>
</linearGradient>
<linearGradient id="paint15_linear_1439_3322" x1="110.69" y1="140.568" x2="79.4193" y2="61.0066" gradientUnits="userSpaceOnUse">
<stop stop-color="#A259FF"/>
<stop offset="0.666667" stop-color="white"/>
</linearGradient>
</defs>
</svg>
