<svg width="206" height="206" viewBox="0 0 206 206" fill="none" xmlns="http://www.w3.org/2000/svg">
<path d="M103 169.667C139.819 169.667 169.667 139.819 169.667 103C169.667 66.181 139.819 36.3333 103 36.3333C66.181 36.3333 36.3333 66.181 36.3333 103C36.3333 139.819 66.181 169.667 103 169.667Z" fill="url(#paint0_linear_1439_3274)"/>
<g filter="url(#filter0_f_1439_3274)">
<path d="M103 151.696C129.894 151.696 151.696 129.894 151.696 103C151.696 76.1061 129.894 54.3044 103 54.3044C76.1061 54.3044 54.3044 76.1061 54.3044 103C54.3044 129.894 76.1061 151.696 103 151.696Z" fill="url(#paint1_linear_1439_3274)"/>
</g>
<path fill-rule="evenodd" clip-rule="evenodd" d="M98.418 48.8435C99.5333 48.8435 100.438 47.9394 100.438 46.824C100.438 45.7087 99.5333 44.8045 98.418 44.8045C97.3026 44.8045 96.3988 45.7087 96.3988 46.824C96.3988 47.9394 97.3026 48.8435 98.418 48.8435ZM98.418 50.3582C100.37 50.3582 101.952 48.7759 101.952 46.824C101.952 44.8722 100.37 43.2899 98.418 43.2899C96.4661 43.2899 94.8841 44.8722 94.8841 46.824C94.8841 48.7759 96.4661 50.3582 98.418 50.3582Z" fill="white"/>
<path fill-rule="evenodd" clip-rule="evenodd" d="M50.3023 141.597C51.4176 141.597 52.3218 140.693 52.3218 139.577C52.3218 138.462 51.4176 137.558 50.3023 137.558C49.187 137.558 48.2828 138.462 48.2828 139.577C48.2828 140.693 49.187 141.597 50.3023 141.597ZM50.3023 143.112C52.2541 143.112 53.8365 141.529 53.8365 139.577C53.8365 137.626 52.2541 136.043 50.3023 136.043C48.3504 136.043 46.7681 137.626 46.7681 139.577C46.7681 141.529 48.3504 143.112 50.3023 143.112Z" fill="white"/>
<path fill-rule="evenodd" clip-rule="evenodd" d="M161.028 136.959C162.143 136.959 163.048 136.055 163.048 134.94C163.048 133.824 162.143 132.921 161.028 132.921C159.912 132.921 159.009 133.824 159.009 134.94C159.009 136.055 159.912 136.959 161.028 136.959ZM161.028 138.474C162.98 138.474 164.562 136.892 164.562 134.94C164.562 132.988 162.98 131.406 161.028 131.406C159.076 131.406 157.494 132.988 157.494 134.94C157.494 136.892 159.076 138.474 161.028 138.474Z" fill="white"/>
<path d="M65.5455 57.892C65.694 57.2766 66.5693 57.2766 66.7178 57.892L67.2178 59.9631C67.2709 60.183 67.4426 60.3547 67.6625 60.4078L69.7336 60.9077C70.3489 61.0562 70.3489 61.9315 69.7336 62.0801L67.6625 62.58C67.4426 62.6331 67.2709 62.8048 67.2178 63.0247L66.7178 65.0958C66.5693 65.7111 65.694 65.7111 65.5455 65.0958L65.0456 63.0247C64.9925 62.8048 64.8208 62.6331 64.6009 62.58L62.5298 62.0801C61.9144 61.9315 61.9144 61.0562 62.5298 60.9077L64.6009 60.4078C64.8208 60.3547 64.9925 60.183 65.0456 59.9631L65.5455 57.892Z" fill="white"/>
<path d="M151.288 148.56C151.45 147.886 152.41 147.886 152.573 148.56L153.121 150.83C153.179 151.071 153.367 151.26 153.608 151.318L155.878 151.866C156.552 152.028 156.552 152.988 155.878 153.151L153.608 153.699C153.367 153.757 153.179 153.946 153.121 154.186L152.573 156.456C152.41 157.131 151.45 157.131 151.288 156.456L150.739 154.186C150.681 153.946 150.493 153.757 150.252 153.699L147.982 153.151C147.307 152.988 147.307 152.028 147.982 151.866L150.252 151.318C150.493 151.26 150.681 151.071 150.739 150.83L151.288 148.56Z" fill="url(#paint2_linear_1439_3274)"/>
<path d="M56.0614 157.05C56.829 156.928 57.4417 157.681 57.1644 158.408L55.2925 163.309C55.0152 164.035 54.0558 164.189 53.5656 163.586L50.2566 159.514C49.7664 158.911 50.113 158.003 50.8806 157.88L56.0614 157.05Z" fill="url(#paint3_linear_1439_3274)"/>
<path d="M154.583 63.0038C154.391 62.2506 155.086 61.5719 155.834 61.7823L160.886 63.2017C161.634 63.412 161.874 64.3535 161.318 64.8965L157.563 68.5612C157.006 69.1041 156.071 68.8413 155.879 68.0881L154.583 63.0038Z" fill="url(#paint4_linear_1439_3274)"/>
<path d="M137.763 98.1948L126.811 100.324C123.694 100.929 121.66 103.947 122.265 107.063C122.871 110.179 125.888 112.213 129.004 111.608L139.957 109.479C143.073 108.873 145.108 105.856 144.502 102.74C143.897 99.6244 140.879 97.589 137.763 98.1948Z" fill="url(#paint5_linear_1439_3274)"/>
<path d="M142.068 103.814C142.123 102.395 141.018 101.201 139.599 101.146C138.18 101.09 136.986 102.195 136.93 103.614C136.875 105.032 137.98 106.227 139.399 106.283C140.818 106.338 142.013 105.232 142.068 103.814Z" fill="#EBEBEB"/>
<path d="M139.766 105.095C140.529 104.947 141.027 104.208 140.879 103.446C140.73 102.683 139.992 102.185 139.229 102.333C138.467 102.481 137.968 103.22 138.117 103.983C138.265 104.745 139.003 105.243 139.766 105.095Z" fill="#DBDBDB"/>
<path d="M120.398 80.884L64.4734 91.7548C61.3306 92.3652 59.278 95.4087 59.8889 98.5513L67.4449 137.423C68.0558 140.566 71.0988 142.619 74.2416 142.008L130.166 131.137C133.309 130.526 135.361 127.483 134.751 124.34L127.194 85.4684C126.584 82.3258 123.541 80.2731 120.398 80.884Z" fill="url(#paint6_linear_1439_3274)"/>
<path d="M119.376 63.2077L130.799 92.7356C131.439 94.3861 130.617 96.2423 128.969 96.8806L82.1386 114.998C80.4908 115.637 78.6346 114.815 77.995 113.165L66.5715 83.6365C65.9785 82.1003 66.7403 80.3741 68.2769 79.7812L115.519 61.5059C117.056 60.913 118.781 61.6747 119.375 63.2114L119.376 63.2077Z" fill="url(#paint7_linear_1439_3274)"/>
<path d="M121.576 91.5194C122.161 93.0377 121.408 94.7449 119.89 95.3304C118.372 95.9165 116.664 95.1629 116.079 93.6446C115.493 92.127 116.246 90.4197 117.765 89.8336C119.282 89.2481 120.99 90.0017 121.576 91.5194Z" fill="url(#paint8_linear_1439_3274)"/>
<path d="M124.959 90.2081C125.545 91.7264 124.791 93.4336 123.274 94.0197C121.755 94.6052 120.048 93.8516 119.462 92.3339C118.877 90.8156 119.63 89.1084 121.148 88.5229C122.666 87.9368 124.373 88.6904 124.959 90.2081Z" fill="url(#paint9_linear_1439_3274)"/>
<path d="M80.686 80.8087L73.0133 83.7768C72.3947 84.0162 72.0872 84.7119 72.3265 85.3304L74.1104 89.9414C74.3497 90.56 75.0453 90.8678 75.6639 90.6284L83.3362 87.6597C83.9554 87.4209 84.2626 86.7252 84.0232 86.1067L82.2394 81.4956C82 80.8769 81.3043 80.5694 80.686 80.8087Z" fill="url(#paint10_linear_1439_3274)"/>
<path d="M115.608 71.6162L111.122 73.3505C110.083 73.7492 108.918 73.2347 108.517 72.1973C108.118 71.1588 108.632 69.9934 109.67 69.5921L114.156 67.8578C115.194 67.4565 116.36 67.9736 116.761 69.0111C117.16 70.0495 116.645 71.2149 115.608 71.6162Z" fill="white"/>
<path d="M76.5947 97.4441L76.2812 97.84C76.2812 97.84 76.2552 97.8684 76.2366 97.8754C76.1992 97.8899 76.159 97.8806 76.1327 97.8603C76.0828 97.818 76.0763 97.753 76.1178 97.7096L76.543 97.1577C76.5791 97.1159 76.652 97.1067 76.6935 97.1426C76.716 97.1617 76.7279 97.1843 76.7355 97.2122L77.758 99.8522C77.7785 99.9055 77.7559 99.9664 77.6972 99.989C77.6437 100.009 77.5809 99.9814 77.5605 99.9281L76.6 97.4417L76.5947 97.4441Z" fill="#F8F8F8"/>
<path d="M78.4294 99.5026L79.3022 97.7704C79.405 97.5594 79.4146 97.3293 79.3357 97.1235C79.2681 96.9473 79.1337 96.7971 78.9512 96.7044C78.7456 96.6 78.511 96.5948 78.3118 96.6742C78.1302 96.7444 77.9776 96.873 77.8826 97.0568L77.793 97.2383C77.7683 97.2933 77.7006 97.3165 77.6532 97.2887C77.5977 97.2638 77.5748 97.1965 77.6025 97.149L77.6911 96.9646C77.8112 96.7351 78.009 96.5641 78.2359 96.4771C78.4868 96.3803 78.7774 96.3791 79.0452 96.5183C79.2831 96.6354 79.4492 96.829 79.5343 97.0504C79.6316 97.3044 79.6286 97.5994 79.4958 97.8678L78.7485 99.3525L80.11 98.8296C80.1624 98.8064 80.2242 98.8319 80.2467 98.8904C80.2672 98.9438 80.2392 99.007 80.1859 99.0273L78.5835 99.6481L78.5675 99.6545C78.5381 99.6661 78.5056 99.669 78.4814 99.6539C78.4267 99.6226 78.4031 99.5612 78.4278 99.5061L78.4294 99.5026Z" fill="#F8F8F8"/>
<path d="M81.6197 95.3733L81.1722 96.4243C81.3675 96.3925 81.5739 96.411 81.7664 96.4968C82.0284 96.6133 82.2209 96.8272 82.3171 97.0783C82.4133 97.3293 82.4162 97.6162 82.2968 97.8794C82.1803 98.142 81.967 98.3368 81.7171 98.4359C81.4719 98.5299 81.1849 98.5328 80.9216 98.4133C80.8672 98.3913 80.8399 98.3287 80.8663 98.2696C80.8872 98.2122 80.9513 98.1878 81.0104 98.2139C81.2191 98.3026 81.4423 98.3026 81.64 98.2267C81.8377 98.1507 82.0064 98 82.1014 97.7925C82.1948 97.5814 82.1913 97.3565 82.1154 97.1588C82.0394 96.9612 81.8893 96.7925 81.6806 96.7043C81.4725 96.6093 81.2475 96.6133 81.0499 96.6887C81.018 96.7014 80.982 96.6962 80.9516 96.6806L80.9463 96.6829C80.8882 96.6591 80.8626 96.5925 80.89 96.5357L81.32 95.5252L80.2174 95.9484C80.1596 95.9739 80.0969 95.9461 80.0754 95.8899C80.0528 95.8313 80.0807 95.7681 80.1368 95.7467L81.4823 95.2301C81.5397 95.2052 81.6029 95.233 81.6243 95.2893C81.6307 95.3049 81.6313 95.3235 81.6284 95.3397C81.6284 95.3548 81.6243 95.3687 81.6191 95.3797L81.6197 95.3733Z" fill="#F8F8F8"/>
<path d="M84.8464 96.5426L83.2899 97.1461L83.2765 97.1513C83.2551 97.1594 83.229 97.1635 83.207 97.1536C83.149 97.1391 83.1183 97.0742 83.1403 97.0197L84.0035 94.3055L84.0064 94.298C84.0267 94.2383 84.0806 94.2116 84.1403 94.2313C84.1612 94.2388 84.1768 94.2545 84.1907 94.2672C84.1936 94.2754 84.2012 94.2783 84.2023 94.2812L84.2075 94.2945L84.9699 96.2655L85.1623 96.1913C85.2209 96.1693 85.2841 96.1971 85.3043 96.2504C85.3246 96.3038 85.2968 96.3664 85.2406 96.3878L85.0487 96.462L85.2383 96.9559C85.2585 97.0093 85.2307 97.0719 85.1745 97.0933C85.1212 97.1142 85.0585 97.0858 85.0377 97.0325L84.8481 96.5385L84.8464 96.5426ZM84.771 96.3449L84.1188 94.6626L83.4116 96.873L84.7727 96.3501L84.771 96.3449Z" fill="#F8F8F8"/>
<path d="M88.5675 95.4568C88.5096 95.433 88.4841 95.3664 88.5125 95.3125C88.5374 95.2574 88.6029 95.229 88.6591 95.2562C88.8678 95.3449 89.0916 95.3449 89.2887 95.269C89.4864 95.193 89.6499 95.0446 89.7438 94.8342C89.8377 94.6232 89.8348 94.4006 89.7588 94.2035C89.6823 94.0029 89.5316 93.8342 89.3246 93.742C89.1188 93.6528 88.8927 93.6539 88.6951 93.7293C88.4945 93.8064 88.3287 93.9559 88.2348 94.1664C88.2098 94.222 88.1432 94.2475 88.0904 94.222C88.0742 94.2191 88.0609 94.2087 88.0545 94.1988L88.0522 94.1936C88.0522 94.1936 88.044 94.1878 88.0417 94.1826C88.0336 94.1762 88.0284 94.1629 88.0243 94.1525C88.022 94.1472 88.0214 94.138 88.0185 94.1299L87.709 92.9165C87.6968 92.8846 87.7026 92.8516 87.7206 92.8267C87.7304 92.8041 87.7513 92.7872 87.778 92.7768L89.1183 92.2626C89.1756 92.2371 89.2383 92.2649 89.2603 92.3212C89.2835 92.3826 89.2545 92.4429 89.1988 92.4643L87.9438 92.9461L88.1722 93.8446C88.2852 93.6997 88.4359 93.5901 88.6098 93.5235C88.8609 93.4272 89.1403 93.4209 89.407 93.542C89.6748 93.6568 89.8597 93.8672 89.9583 94.1235C90.0522 94.3693 90.0626 94.6597 89.9403 94.9241C89.8226 95.1832 89.607 95.3797 89.3588 95.4748C89.1078 95.571 88.8209 95.5739 88.5588 95.4574L88.5675 95.4568Z" fill="#F8F8F8"/>
<path d="M90.5467 92.4342C90.6104 92.0087 90.8417 91.6226 91.3125 91.4203C91.3641 91.3948 91.4267 91.4226 91.4528 91.4742C91.4748 91.5328 91.447 91.5954 91.3948 91.6185C90.9977 91.7896 90.8243 92.0951 90.7571 92.4638C90.7229 92.6696 90.7368 92.8974 90.7757 93.1183C90.8736 92.8539 91.0777 92.6284 91.3612 92.52C91.8922 92.3159 92.4794 92.5774 92.6806 93.1009C92.8823 93.6267 92.6232 94.2127 92.0957 94.4185C91.5809 94.6162 91.0058 94.3716 90.7913 93.869C90.76 93.8104 90.7362 93.749 90.7107 93.6823C90.567 93.2997 90.4835 92.8504 90.5496 92.433L90.5467 92.4342ZM90.9855 93.7756C90.9936 93.7971 91.0052 93.811 91.0139 93.8261C91.0191 93.8394 91.022 93.8475 91.0197 93.8574C91.211 94.2041 91.6371 94.3646 92.0139 94.2203C92.4331 94.0597 92.6388 93.5913 92.4812 93.1803C92.3235 92.7693 91.8551 92.5629 91.4359 92.7241C91.0249 92.8817 90.8186 93.3496 90.9768 93.7612L90.9826 93.7768L90.9855 93.7756Z" fill="#F8F8F8"/>
<path d="M94.04 93.5078L94.127 90.5739L92.7357 91.1078C92.6835 91.1304 92.6214 91.1055 92.6012 91.0522C92.5809 90.9988 92.6087 90.9357 92.662 90.9154L94.1838 90.331C94.2017 90.3148 94.2209 90.3078 94.2452 90.3078C94.2742 90.3119 94.3049 90.3275 94.3223 90.3484C94.3328 90.36 94.3386 90.367 94.3426 90.3774C94.3507 90.3988 94.3513 90.4168 94.3467 90.4371L94.2568 93.513C94.2551 93.5565 94.2267 93.5954 94.1896 93.6093C94.1733 93.6157 94.1652 93.6186 94.1461 93.6168C94.0875 93.6151 94.04 93.5629 94.0371 93.5084L94.04 93.5078Z" fill="#F8F8F8"/>
<path d="M95.8203 89.6713C96.149 89.5455 96.5235 89.7078 96.6499 90.0359C96.7264 90.2365 96.6945 90.4475 96.5907 90.6162C96.9855 90.6238 97.3548 90.8678 97.5038 91.2551C97.7026 91.7728 97.4487 92.3484 96.9316 92.5496C96.4162 92.7478 95.8383 92.4945 95.6371 91.978C95.4881 91.5907 95.5971 91.1629 95.8788 90.8928C95.6928 90.8383 95.5299 90.702 95.4533 90.5014C95.327 90.1733 95.4852 89.8029 95.8191 89.6748L95.8203 89.6713ZM96.8574 92.3484C97.2684 92.1907 97.4643 91.7357 97.309 91.3299C97.1542 90.927 96.7014 90.7206 96.2899 90.8788C95.8841 91.0342 95.6841 91.4939 95.8388 91.8974C95.9954 92.3055 96.4516 92.5043 96.8574 92.3484ZM96.2087 90.6742C96.4278 90.5838 96.5397 90.3328 96.4551 90.1107C96.3699 89.8893 96.1206 89.7826 95.8991 89.8678C95.6777 89.953 95.5699 90.1994 95.6551 90.4209C95.7403 90.6423 95.9884 90.7554 96.211 90.673L96.2087 90.6742Z" fill="#F8F8F8"/>
<path d="M100.93 87.6951C101.424 87.5055 101.964 87.7154 102.199 88.167C102.207 88.1733 102.209 88.1785 102.215 88.1855C102.25 88.2609 102.285 88.3426 102.317 88.4278C102.464 88.8098 102.547 89.2649 102.486 89.6806C102.419 90.098 102.186 90.4939 101.72 90.6939L101.715 90.6962C101.656 90.7188 101.595 90.6962 101.574 90.6429C101.552 90.5838 101.576 90.5258 101.632 90.498C102.023 90.3264 102.209 90.0197 102.27 89.6527C102.302 89.4417 102.296 89.2174 102.252 88.9983C102.154 89.2626 101.946 89.48 101.658 89.5907C101.134 89.7913 100.548 89.5391 100.341 89.0087C100.14 88.4858 100.402 87.898 100.925 87.6974L100.93 87.6951ZM102.048 88.3478C101.89 87.9368 101.426 87.7345 101.007 87.8956C100.596 88.0533 100.389 88.5188 100.546 88.9275C100.707 89.3467 101.172 89.5443 101.583 89.3867C102.002 89.2261 102.209 88.767 102.045 88.3484L102.048 88.3478Z" fill="#F8F8F8"/>
<path d="M103.172 88.4823C103.023 88.0957 102.984 87.7061 103.057 87.3687C103.134 87.0452 103.318 86.7728 103.609 86.6609C103.9 86.549 104.221 86.6278 104.494 86.8139C104.77 87.0145 105.013 87.3258 105.164 87.7119C105.312 88.0986 105.344 88.491 105.271 88.822C105.195 89.1484 105.012 89.4238 104.721 89.5357C104.43 89.647 104.109 89.5681 103.834 89.3768C103.557 89.1832 103.319 88.8673 103.17 88.48L103.172 88.4823ZM103.372 88.4058C103.507 88.7583 103.725 89.0388 103.96 89.2029C104.193 89.3646 104.439 89.4145 104.645 89.3351C104.85 89.2562 104.993 89.0545 105.061 88.7774C105.123 88.4991 105.1 88.1438 104.965 87.7913C104.83 87.4388 104.606 87.16 104.374 86.9948C104.135 86.8267 103.895 86.7838 103.689 86.8626C103.483 86.9415 103.332 87.1374 103.272 87.4209C103.211 87.6986 103.239 88.0522 103.376 88.4075L103.372 88.4058Z" fill="#F8F8F8"/>
<path d="M106.049 86.051L105.736 86.4475C105.736 86.4475 105.71 86.4754 105.691 86.4829C105.653 86.4974 105.613 86.4881 105.587 86.4678C105.537 86.4255 105.53 86.3606 105.572 86.3171L105.997 85.7646C106.034 85.7235 106.106 85.7136 106.148 85.7501C106.17 85.7687 106.182 85.7919 106.19 85.8197L107.212 88.4591C107.232 88.513 107.21 88.5733 107.151 88.5959C107.098 88.6168 107.035 88.5884 107.014 88.5351L106.054 86.0493L106.049 86.051Z" fill="#F8F8F8"/>
<path d="M107.883 88.1078L108.755 86.3762C108.859 86.1652 108.868 85.9345 108.789 85.7293C108.721 85.553 108.587 85.4023 108.405 85.3101C108.199 85.2052 107.964 85.2006 107.765 85.28C107.584 85.3496 107.432 85.4812 107.336 85.662L107.246 85.8435C107.221 85.8991 107.154 85.9217 107.107 85.8939C107.051 85.8696 107.028 85.8017 107.056 85.7542L107.144 85.5704C107.264 85.3403 107.462 85.1693 107.688 85.0794C107.939 84.9832 108.23 84.982 108.497 85.1212C108.735 85.2383 108.901 85.4319 108.987 85.6533C109.084 85.9067 109.081 86.2023 108.948 86.4707L108.201 87.9554L109.562 87.4325C109.614 87.4093 109.678 87.4371 109.699 87.4933C109.719 87.5467 109.692 87.6093 109.638 87.6301L108.036 88.251L108.02 88.2574C107.99 88.2684 107.958 88.2719 107.934 88.2568C107.879 88.2255 107.855 88.1641 107.88 88.109L107.883 88.1078Z" fill="#F8F8F8"/>
<path d="M113.535 83.0272L113.087 84.0788C113.283 84.0464 113.489 84.0649 113.681 84.1507C113.944 84.2673 114.136 84.4812 114.232 84.7322C114.329 84.9832 114.332 85.2702 114.212 85.5333C114.095 85.7959 113.882 85.9907 113.635 86.0887C113.39 86.1832 113.1 86.1873 112.837 86.0678C112.782 86.0458 112.755 85.9826 112.781 85.9235C112.803 85.869 112.866 85.8417 112.925 85.8678C113.134 85.9565 113.358 85.9565 113.555 85.8806C113.752 85.8046 113.922 85.6539 114.016 85.4464C114.11 85.2359 114.106 85.0104 114.031 84.8128C113.955 84.6157 113.804 84.4464 113.595 84.3583C113.388 84.2632 113.162 84.2673 112.965 84.3432C112.933 84.3554 112.897 84.3507 112.867 84.3345L112.861 84.3368C112.803 84.313 112.777 84.2464 112.805 84.1896L113.235 83.1797L112.132 83.6029C112.075 83.6278 112.012 83.6 111.99 83.5438C111.968 83.4852 111.996 83.422 112.052 83.4006L113.397 82.8841C113.455 82.8591 113.518 82.887 113.539 82.9432C113.546 82.9594 113.546 82.9774 113.543 82.9936C113.543 83.0093 113.539 83.0226 113.534 83.0336L113.535 83.0272Z" fill="#F8F8F8"/>
<path d="M116.762 84.1965L115.203 84.7954L115.198 84.8L115.191 84.8029C115.169 84.811 115.144 84.818 115.121 84.8052C115.063 84.7907 115.032 84.7258 115.054 84.6713L115.918 81.9571L115.921 81.9496C115.941 81.8899 115.995 81.8632 116.054 81.8835C116.075 81.8904 116.091 81.9061 116.105 81.9188C116.108 81.927 116.113 81.931 116.117 81.9328L116.122 81.9461L116.884 83.9171L117.077 83.8435C117.135 83.8209 117.198 83.8487 117.219 83.902C117.239 83.9554 117.211 84.0186 117.155 84.04L116.963 84.1136L117.152 84.6075C117.173 84.6609 117.145 84.7235 117.089 84.7449C117.035 84.7658 116.973 84.738 116.952 84.6841L116.762 84.1901L116.762 84.1965ZM116.686 83.9994L116.034 82.3165L115.326 84.527L116.688 84.0046L116.686 83.9994Z" fill="#F8F8F8"/>
<path d="M118.021 84.062C117.963 84.0383 117.937 83.9716 117.966 83.9177C117.99 83.8626 118.057 83.8365 118.112 83.8614C118.321 83.9496 118.544 83.9496 118.742 83.8742C118.94 83.7983 119.103 83.6499 119.197 83.4388C119.291 83.2284 119.288 83.0058 119.212 82.8081C119.135 82.6081 118.985 82.4394 118.778 82.3472C118.571 82.2551 118.346 82.2585 118.148 82.3345C117.948 82.4116 117.782 82.5612 117.688 82.7716C117.663 82.8272 117.598 82.8551 117.544 82.8267C117.528 82.8238 117.514 82.8139 117.508 82.8041L117.506 82.7988C117.506 82.7988 117.497 82.793 117.495 82.7872C117.486 82.7814 117.482 82.7681 117.478 82.7577C117.475 82.7519 117.475 82.7432 117.472 82.7351L117.162 81.5217C117.15 81.4893 117.156 81.4568 117.174 81.4313C117.184 81.4093 117.205 81.3919 117.231 81.382L118.571 80.8674C118.629 80.8422 118.692 80.8701 118.713 80.9262C118.737 80.9878 118.708 81.0475 118.652 81.069L117.397 81.5507L117.626 82.4493C117.74 82.3078 117.889 82.1948 118.063 82.1287C118.314 82.0319 118.593 82.0261 118.86 82.1472C119.128 82.262 119.313 82.4725 119.412 82.7287C119.506 82.9745 119.516 83.2643 119.394 83.5287C119.276 83.7884 119.06 83.9843 118.812 84.08C118.561 84.1762 118.274 84.1791 118.012 84.0626L118.021 84.062Z" fill="#F8F8F8"/>
<path d="M120 81.0394C120.064 80.6137 120.294 80.225 120.766 80.0255C120.817 79.9997 120.88 80.0276 120.906 80.079C120.928 80.1377 120.9 80.2005 120.848 80.2237C120.452 80.3971 120.277 80.7001 120.21 81.069C120.176 81.2748 120.19 81.502 120.229 81.7235C120.327 81.4591 120.531 81.2336 120.814 81.1252C121.346 80.921 121.933 81.1826 122.134 81.7055C122.336 82.2319 122.077 82.818 121.549 83.0238C121.034 83.2214 120.459 82.9768 120.245 82.4736C120.213 82.4156 120.19 82.3542 120.164 82.2875C120.02 81.9043 119.936 81.4556 120.003 81.0383L120 81.0394ZM120.439 82.3809C120.447 82.4023 120.459 82.4162 120.467 82.4313C120.472 82.4446 120.475 82.4527 120.473 82.4626C120.664 82.8087 121.09 82.9698 121.467 82.8255C121.886 82.6643 122.092 82.1965 121.934 81.7855C121.777 81.3739 121.308 81.1681 120.889 81.3287C120.478 81.4869 120.272 81.9548 120.43 82.3658L120.436 82.382L120.439 82.3809Z" fill="#F8F8F8"/>
<path d="M104.943 95.1183L79.8665 104.82L80.3432 106.052L105.42 96.3501L104.943 95.1183Z" fill="url(#paint11_linear_1439_3274)"/>
<path d="M98.6794 100.69L80.9259 107.558L81.4023 108.791L99.1559 101.922L98.6794 100.69Z" fill="url(#paint12_linear_1439_3274)"/>
<path d="M105.45 71.2255L94.1768 75.5866C93.8365 75.7183 93.6672 76.1008 93.7988 76.441C93.9304 76.7812 94.313 76.9504 94.6533 76.8187L105.926 72.4576C106.267 72.3259 106.435 71.9434 106.304 71.6032C106.172 71.263 105.79 71.0938 105.45 71.2255Z" fill="#3B3B3B"/>
<path d="M126.108 102.702L67.3525 114.123L71.9248 137.646L130.681 126.225L126.108 102.702Z" fill="url(#paint13_linear_1439_3274)"/>
<path opacity="0.2" d="M126.108 102.702L67.3525 114.123L71.9248 137.646L130.681 126.225L126.108 102.702Z" fill="black"/>
<path d="M131.535 140.303L73.6473 143.232C70.765 143.379 68.2144 141.382 67.6637 138.549L59.3307 95.6794C59.1341 94.6678 60.1736 93.8638 61.1033 94.3084C62.1823 94.8238 63.3813 95.0423 64.5763 94.9415L116.579 90.4933C119.531 90.2406 122.198 92.2545 122.763 95.1629L131.537 140.3C131.537 140.301 131.536 140.303 131.535 140.303Z" fill="url(#paint14_linear_1439_3274)"/>
<path d="M119.239 119.191C120.587 118.929 121.437 117.472 121.139 115.938C120.841 114.403 119.507 113.372 118.159 113.633C116.812 113.895 115.962 115.351 116.26 116.886C116.559 118.421 117.893 119.453 119.239 119.191Z" fill="#EBEBEB"/>
<path d="M119.834 116.192C119.972 116.905 119.577 117.582 118.951 117.703C118.325 117.825 117.704 117.346 117.566 116.632C117.427 115.92 117.823 115.243 118.449 115.121C119.075 114.999 119.695 115.479 119.834 116.192Z" fill="#DBDBDB"/>
<defs>
<filter id="filter0_f_1439_3274" x="0.304352" y="0.304352" width="205.391" height="205.391" filterUnits="userSpaceOnUse" color-interpolation-filters="sRGB">
<feFlood flood-opacity="0" result="BackgroundImageFix"/>
<feBlend mode="normal" in="SourceGraphic" in2="BackgroundImageFix" result="shape"/>
<feGaussianBlur stdDeviation="27" result="effect1_foregroundBlur_1439_3274"/>
</filter>
<linearGradient id="paint0_linear_1439_3274" x1="54.9324" y1="36.3333" x2="156.694" y2="57.5165" gradientUnits="userSpaceOnUse">
<stop stop-color="#A259FF"/>
<stop offset="1" stop-color="#3B3B3B"/>
</linearGradient>
<linearGradient id="paint1_linear_1439_3274" x1="70.0725" y1="54.3044" x2="164.251" y2="72.4673" gradientUnits="userSpaceOnUse">
<stop stop-color="#A259FF" stop-opacity="0"/>
<stop offset="1" stop-color="#FF6250"/>
</linearGradient>
<linearGradient id="paint2_linear_1439_3274" x1="153.834" y1="150.034" x2="162.373" y2="156.741" gradientUnits="userSpaceOnUse">
<stop stop-color="#A259FF"/>
<stop offset="1" stop-color="#377DF7"/>
</linearGradient>
<linearGradient id="paint3_linear_1439_3274" x1="56.853" y1="159.536" x2="56.5677" y2="168.032" gradientUnits="userSpaceOnUse">
<stop stop-color="#A259FF"/>
<stop offset="1" stop-color="#377DF7"/>
</linearGradient>
<linearGradient id="paint4_linear_1439_3274" x1="156.987" y1="61.99" x2="165.474" y2="61.5032" gradientUnits="userSpaceOnUse">
<stop stop-color="#A259FF"/>
<stop offset="1" stop-color="#377DF7"/>
</linearGradient>
<linearGradient id="paint5_linear_1439_3274" x1="124.769" y1="100.721" x2="145.697" y2="104.339" gradientUnits="userSpaceOnUse">
<stop stop-color="#A259FF"/>
<stop offset="1" stop-color="#3B3B3B"/>
</linearGradient>
<linearGradient id="paint6_linear_1439_3274" x1="110.999" y1="153.374" x2="88.3907" y2="108.977" gradientUnits="userSpaceOnUse">
<stop stop-color="#A259FF"/>
<stop offset="1" stop-color="#3B3B3B"/>
</linearGradient>
<linearGradient id="paint7_linear_1439_3274" x1="74.0239" y1="77.4343" x2="128.471" y2="72.7315" gradientUnits="userSpaceOnUse">
<stop stop-color="#A259FF"/>
<stop offset="1" stop-color="#FF6250"/>
</linearGradient>
<linearGradient id="paint8_linear_1439_3274" x1="115.911" y1="90.5455" x2="121.625" y2="89.5293" gradientUnits="userSpaceOnUse">
<stop stop-color="#A259FF"/>
<stop offset="1" stop-color="#FF6250"/>
</linearGradient>
<linearGradient id="paint9_linear_1439_3274" x1="119.294" y1="89.2342" x2="125.009" y2="88.218" gradientUnits="userSpaceOnUse">
<stop stop-color="#A259FF"/>
<stop offset="1" stop-color="#3B3B3B"/>
</linearGradient>
<linearGradient id="paint10_linear_1439_3274" x1="73.4981" y1="83.5896" x2="83.7183" y2="82.5948" gradientUnits="userSpaceOnUse">
<stop stop-color="#A259FF"/>
<stop offset="1" stop-color="#3B3B3B"/>
</linearGradient>
<linearGradient id="paint11_linear_1439_3274" x1="83.9264" y1="103.249" x2="87.7872" y2="108.673" gradientUnits="userSpaceOnUse">
<stop stop-color="#A259FF"/>
<stop offset="1" stop-color="#FF6250"/>
</linearGradient>
<linearGradient id="paint12_linear_1439_3274" x1="83.8" y1="106.446" x2="88.0365" y2="111.33" gradientUnits="userSpaceOnUse">
<stop stop-color="#A259FF"/>
<stop offset="1" stop-color="#FF6250"/>
</linearGradient>
<linearGradient id="paint13_linear_1439_3274" x1="76.8653" y1="112.274" x2="129.174" y2="126.018" gradientUnits="userSpaceOnUse">
<stop stop-color="#A259FF"/>
<stop offset="1" stop-color="#3B3B3B"/>
</linearGradient>
<linearGradient id="paint14_linear_1439_3274" x1="115.925" y1="126.024" x2="25.3079" y2="82.5345" gradientUnits="userSpaceOnUse">
<stop stop-color="#A259FF"/>
<stop offset="0.666667" stop-color="white"/>
</linearGradient>
</defs>
</svg>
