<svg width="183" height="24" viewBox="0 0 183 24" fill="none" xmlns="http://www.w3.org/2000/svg">
<path fill-rule="evenodd" clip-rule="evenodd" d="M4.5 9.33765C4.91421 9.33765 5.25 9.67343 5.25 10.0876V19.5001H18.75V10.0876C18.75 9.67343 19.0858 9.33765 19.5 9.33765C19.9142 9.33765 20.25 9.67343 20.25 10.0876V19.5001C20.25 19.898 20.092 20.2795 19.8107 20.5608C19.5294 20.8421 19.1478 21.0001 18.75 21.0001H5.25C4.85218 21.0001 4.47065 20.8421 4.18934 20.5608C3.90804 20.2795 3.75 19.898 3.75 19.5001V10.0876C3.75 9.67343 4.08579 9.33765 4.5 9.33765Z" fill="#A259FF"/>
<path fill-rule="evenodd" clip-rule="evenodd" d="M2.25 3.75C2.25 3.33579 2.58579 3 3 3H21C21.4142 3 21.75 3.33579 21.75 3.75C21.75 4.16421 21.4142 4.5 21 4.5H3C2.58579 4.5 2.25 4.16421 2.25 3.75Z" fill="#A259FF"/>
<path fill-rule="evenodd" clip-rule="evenodd" d="M3 5.25C3.41421 5.25 3.75 5.58579 3.75 6V7.5C3.75 8.09674 3.98705 8.66903 4.40901 9.09099C4.83097 9.51295 5.40326 9.75 6 9.75C6.59674 9.75 7.16903 9.51295 7.59099 9.09099C8.01295 8.66903 8.25 8.09674 8.25 7.5V6C8.25 5.58579 8.58579 5.25 9 5.25C9.41421 5.25 9.75 5.58579 9.75 6V7.5C9.75 8.49456 9.35491 9.44839 8.65165 10.1516C7.94839 10.8549 6.99456 11.25 6 11.25C5.00544 11.25 4.05161 10.8549 3.34835 10.1516C2.64509 9.44839 2.25 8.49456 2.25 7.5V6C2.25 5.58579 2.58579 5.25 3 5.25Z" fill="#A259FF"/>
<path fill-rule="evenodd" clip-rule="evenodd" d="M9 5.25C9.41421 5.25 9.75 5.58579 9.75 6V7.5C9.75 8.09674 9.98705 8.66903 10.409 9.09099C10.831 9.51295 11.4033 9.75 12 9.75C12.5967 9.75 13.169 9.51295 13.591 9.09099C14.0129 8.66903 14.25 8.09674 14.25 7.5V6C14.25 5.58579 14.5858 5.25 15 5.25C15.4142 5.25 15.75 5.58579 15.75 6V7.5C15.75 8.49456 15.3549 9.44839 14.6516 10.1516C13.9484 10.8549 12.9946 11.25 12 11.25C11.0054 11.25 10.0516 10.8549 9.34835 10.1516C8.64509 9.44839 8.25 8.49456 8.25 7.5V6C8.25 5.58579 8.58579 5.25 9 5.25Z" fill="#A259FF"/>
<path fill-rule="evenodd" clip-rule="evenodd" d="M15 5.25C15.4142 5.25 15.75 5.58579 15.75 6V7.5C15.75 8.09674 15.9871 8.66903 16.409 9.09099C16.831 9.51295 17.4033 9.75 18 9.75C18.5967 9.75 19.169 9.51295 19.591 9.09099C20.0129 8.66903 20.25 8.09674 20.25 7.5V6C20.25 5.58579 20.5858 5.25 21 5.25C21.4142 5.25 21.75 5.58579 21.75 6V7.5C21.75 8.49456 21.3549 9.44839 20.6516 10.1516C19.9484 10.8549 18.9946 11.25 18 11.25C17.0054 11.25 16.0516 10.8549 15.3484 10.1516C14.6451 9.44839 14.25 8.49456 14.25 7.5V6C14.25 5.58579 14.5858 5.25 15 5.25Z" fill="#A259FF"/>
<path d="M38.61 16.9105H38.907V6.44946H41.085V17.9995H36.828L35.475 7.53846H35.178V17.9995H33V6.44946H37.257L38.61 16.9105Z" fill="white"/>
<path d="M43.5485 6.44946H50.9405V8.52846H45.7265V11.1685H50.8415V13.2475H45.7265V17.9995H43.5485V6.44946Z" fill="white"/>
<path d="M53.0906 6.44946H61.4066V8.52846H58.3376V17.9995H56.1596V8.52846H53.0906V6.44946Z" fill="white"/>
<path d="M72.7686 6.44946H76.5966L77.2566 15.1285V16.8115H77.6526V15.1285L78.3126 6.44946H82.1406V17.9995H80.1606V10.2775L80.3586 7.63746H79.9626L79.1046 17.9995H75.8376L74.9466 7.63746H74.5506L74.7486 10.2775V17.9995H72.7686V6.44946Z" fill="white"/>
<path d="M89.0921 16.8115C88.8721 17.3285 88.5641 17.697 88.1681 17.917C87.7721 18.126 87.3101 18.2305 86.7821 18.2305C86.2871 18.2305 85.8196 18.137 85.3796 17.95C84.9506 17.763 84.5711 17.488 84.2411 17.125C83.9111 16.762 83.6471 16.322 83.4491 15.805C83.2621 15.288 83.1686 14.6995 83.1686 14.0395V13.7755C83.1686 13.1265 83.2621 12.5435 83.4491 12.0265C83.6361 11.5095 83.8891 11.0695 84.2081 10.7065C84.5271 10.3435 84.8956 10.0685 85.3136 9.88146C85.7426 9.68346 86.1991 9.58446 86.6831 9.58446C87.2661 9.58446 87.7336 9.68346 88.0856 9.88146C88.4486 10.0795 88.7346 10.3875 88.9436 10.8055H89.2406V9.81546H91.3196V15.5245C91.3196 15.8545 91.4681 16.0195 91.7651 16.0195H92.0786V17.9995H90.6596C90.2856 17.9995 89.9776 17.8895 89.7356 17.6695C89.5046 17.4495 89.3891 17.1635 89.3891 16.8115H89.0921ZM87.2441 16.2505C87.8491 16.2505 88.3331 16.0525 88.6961 15.6565C89.0591 15.2495 89.2406 14.6995 89.2406 14.0065V13.8085C89.2406 13.1155 89.0591 12.571 88.6961 12.175C88.3331 11.768 87.8491 11.5645 87.2441 11.5645C86.6391 11.5645 86.1551 11.768 85.7921 12.175C85.4291 12.571 85.2476 13.1155 85.2476 13.8085V14.0065C85.2476 14.6995 85.4291 15.2495 85.7921 15.6565C86.1551 16.0525 86.6391 16.2505 87.2441 16.2505Z" fill="white"/>
<path d="M93.5027 9.81546H96.9677V11.0035H97.2647C97.4187 10.5525 97.6772 10.206 98.0402 9.96396C98.4142 9.71096 98.8597 9.58446 99.3767 9.58446C100.191 9.58446 100.845 9.84296 101.34 10.36C101.835 10.866 102.083 11.6415 102.083 12.6865V13.0495L99.9377 13.2475V13.0165C99.9377 12.5655 99.8222 12.208 99.5912 11.944C99.3602 11.669 99.0137 11.5315 98.5517 11.5315C98.0897 11.5315 97.7267 11.691 97.4627 12.01C97.1987 12.329 97.0667 12.7855 97.0667 13.3795V16.0195H98.9477V17.9995H93.3047V16.0195H94.9877V11.7955H93.5027V9.81546Z" fill="white"/>
<path d="M106.741 12.8185H107.137L109.315 9.81546H111.592V9.91446L108.952 13.66V13.957L111.856 17.9005V17.9995H109.48L107.137 14.7985H106.741V17.9995H104.662V6.44946H106.741V12.8185Z" fill="white"/>
<path d="M115.936 14.584C115.947 14.826 116.002 15.0515 116.101 15.2605C116.211 15.4585 116.354 15.6345 116.53 15.7885C116.717 15.9315 116.926 16.047 117.157 16.135C117.399 16.212 117.652 16.2505 117.916 16.2505C118.433 16.2505 118.829 16.1625 119.104 15.9865C119.379 15.7995 119.577 15.5795 119.698 15.3265L121.48 16.3165C121.381 16.5255 121.244 16.7455 121.068 16.9765C120.892 17.1965 120.661 17.4 120.375 17.587C120.1 17.774 119.759 17.928 119.352 18.049C118.956 18.17 118.488 18.2305 117.949 18.2305C117.333 18.2305 116.772 18.1315 116.266 17.9335C115.76 17.7355 115.32 17.4495 114.946 17.0755C114.583 16.7015 114.297 16.245 114.088 15.706C113.89 15.167 113.791 14.5565 113.791 13.8745V13.7755C113.791 13.1485 113.896 12.5765 114.105 12.0595C114.325 11.5425 114.622 11.1025 114.996 10.7395C115.37 10.3765 115.804 10.096 116.299 9.89796C116.805 9.68896 117.344 9.58446 117.916 9.58446C118.62 9.58446 119.225 9.71096 119.731 9.96396C120.237 10.206 120.655 10.5195 120.985 10.9045C121.315 11.2785 121.557 11.6965 121.711 12.1585C121.865 12.6095 121.942 13.0495 121.942 13.4785V14.584H115.936ZM117.9 11.4655C117.372 11.4655 116.943 11.603 116.613 11.878C116.283 12.142 116.068 12.45 115.969 12.802H119.83C119.764 12.417 119.555 12.098 119.203 11.845C118.862 11.592 118.428 11.4655 117.9 11.4655Z" fill="white"/>
<path d="M123.977 9.81546H126.402V6.44946H128.481V9.81546H131.435V11.7955H128.481V15.5245C128.481 15.8545 128.63 16.0195 128.927 16.0195H131.138V17.9995H127.673C127.299 17.9995 126.991 17.8785 126.749 17.6365C126.518 17.3945 126.402 17.0865 126.402 16.7125V11.7955H123.977V9.81546Z" fill="white"/>
<path d="M135.961 21.2995H133.882V9.81546H135.961V11.0035H136.258C136.478 10.5525 136.797 10.206 137.215 9.96396C137.633 9.71096 138.166 9.58446 138.815 9.58446C139.299 9.58446 139.756 9.67796 140.185 9.86496C140.625 10.052 141.004 10.327 141.323 10.69C141.653 11.042 141.912 11.4765 142.099 11.9935C142.297 12.5105 142.396 13.099 142.396 13.759V14.056C142.396 14.727 142.302 15.321 142.115 15.838C141.928 16.355 141.675 16.795 141.356 17.158C141.037 17.51 140.658 17.7795 140.218 17.9665C139.789 18.1425 139.321 18.2305 138.815 18.2305C138.441 18.2305 138.117 18.192 137.842 18.115C137.567 18.038 137.325 17.9335 137.116 17.8015C136.918 17.6695 136.747 17.521 136.604 17.356C136.472 17.18 136.357 16.9985 136.258 16.8115H135.961V21.2995ZM138.139 16.2505C138.788 16.2505 139.31 16.0525 139.706 15.6565C140.113 15.2495 140.317 14.6995 140.317 14.0065V13.8085C140.317 13.1155 140.113 12.571 139.706 12.175C139.31 11.768 138.788 11.5645 138.139 11.5645C137.49 11.5645 136.962 11.7735 136.555 12.1915C136.159 12.5985 135.961 13.1375 135.961 13.8085V14.0065C135.961 14.6775 136.159 15.222 136.555 15.64C136.962 16.047 137.49 16.2505 138.139 16.2505Z" fill="white"/>
<path d="M144.364 16.0195H147.235V8.42946H144.463V6.44946H149.314V16.0195H151.987V17.9995H144.364V16.0195Z" fill="white"/>
<path d="M159.813 16.8115C159.593 17.3285 159.285 17.697 158.889 17.917C158.493 18.126 158.031 18.2305 157.503 18.2305C157.008 18.2305 156.541 18.137 156.101 17.95C155.672 17.763 155.292 17.488 154.962 17.125C154.632 16.762 154.368 16.322 154.17 15.805C153.983 15.288 153.89 14.6995 153.89 14.0395V13.7755C153.89 13.1265 153.983 12.5435 154.17 12.0265C154.357 11.5095 154.61 11.0695 154.929 10.7065C155.248 10.3435 155.617 10.0685 156.035 9.88146C156.464 9.68346 156.92 9.58446 157.404 9.58446C157.987 9.58446 158.455 9.68346 158.807 9.88146C159.17 10.0795 159.456 10.3875 159.665 10.8055H159.962V9.81546H162.041V15.5245C162.041 15.8545 162.189 16.0195 162.486 16.0195H162.8V17.9995H161.381C161.007 17.9995 160.699 17.8895 160.457 17.6695C160.226 17.4495 160.11 17.1635 160.11 16.8115H159.813ZM157.965 16.2505C158.57 16.2505 159.054 16.0525 159.417 15.6565C159.78 15.2495 159.962 14.6995 159.962 14.0065V13.8085C159.962 13.1155 159.78 12.571 159.417 12.175C159.054 11.768 158.57 11.5645 157.965 11.5645C157.36 11.5645 156.876 11.768 156.513 12.175C156.15 12.571 155.969 13.1155 155.969 13.8085V14.0065C155.969 14.6995 156.15 15.2495 156.513 15.6565C156.876 16.0525 157.36 16.2505 157.965 16.2505Z" fill="white"/>
<path d="M172.606 14.9965C172.419 15.9645 171.973 16.7455 171.269 17.3395C170.576 17.9335 169.647 18.2305 168.481 18.2305C167.876 18.2305 167.309 18.137 166.781 17.95C166.264 17.763 165.813 17.4935 165.428 17.1415C165.043 16.7895 164.741 16.355 164.521 15.838C164.301 15.321 164.191 14.7325 164.191 14.0725V13.8745C164.191 13.2145 164.301 12.6205 164.521 12.0925C164.741 11.5645 165.043 11.1135 165.428 10.7395C165.824 10.3655 166.281 10.0795 166.798 9.88146C167.326 9.68346 167.887 9.58446 168.481 9.58446C169.625 9.58446 170.549 9.88146 171.253 10.4755C171.968 11.0695 172.419 11.8505 172.606 12.8185L170.56 13.3465C170.494 12.8625 170.285 12.4445 169.933 12.0925C169.581 11.7405 169.086 11.5645 168.448 11.5645C168.151 11.5645 167.87 11.6195 167.606 11.7295C167.342 11.8395 167.111 11.999 166.913 12.208C166.715 12.406 166.556 12.6535 166.435 12.9505C166.325 13.2365 166.27 13.561 166.27 13.924V14.023C166.27 14.386 166.325 14.7105 166.435 14.9965C166.556 15.2715 166.715 15.5025 166.913 15.6895C167.111 15.8765 167.342 16.0195 167.606 16.1185C167.87 16.2065 168.151 16.2505 168.448 16.2505C169.086 16.2505 169.57 16.091 169.9 15.772C170.241 15.453 170.461 15.024 170.56 14.485L172.606 14.9965Z" fill="white"/>
<path d="M176.554 14.584C176.565 14.826 176.62 15.0515 176.719 15.2605C176.829 15.4585 176.972 15.6345 177.148 15.7885C177.335 15.9315 177.544 16.047 177.775 16.135C178.017 16.212 178.27 16.2505 178.534 16.2505C179.051 16.2505 179.447 16.1625 179.722 15.9865C179.997 15.7995 180.195 15.5795 180.316 15.3265L182.098 16.3165C181.999 16.5255 181.862 16.7455 181.686 16.9765C181.51 17.1965 181.279 17.4 180.993 17.587C180.718 17.774 180.377 17.928 179.97 18.049C179.574 18.17 179.106 18.2305 178.567 18.2305C177.951 18.2305 177.39 18.1315 176.884 17.9335C176.378 17.7355 175.938 17.4495 175.564 17.0755C175.201 16.7015 174.915 16.245 174.706 15.706C174.508 15.167 174.409 14.5565 174.409 13.8745V13.7755C174.409 13.1485 174.514 12.5765 174.723 12.0595C174.943 11.5425 175.24 11.1025 175.614 10.7395C175.988 10.3765 176.422 10.096 176.917 9.89796C177.423 9.68896 177.962 9.58446 178.534 9.58446C179.238 9.58446 179.843 9.71096 180.349 9.96396C180.855 10.206 181.273 10.5195 181.603 10.9045C181.933 11.2785 182.175 11.6965 182.329 12.1585C182.483 12.6095 182.56 13.0495 182.56 13.4785V14.584H176.554ZM178.518 11.4655C177.99 11.4655 177.561 11.603 177.231 11.878C176.901 12.142 176.686 12.45 176.587 12.802H180.448C180.382 12.417 180.173 12.098 179.821 11.845C179.48 11.592 179.046 11.4655 178.518 11.4655Z" fill="white"/>
</svg>
