<svg width="80" height="80" viewBox="0 0 80 80" fill="none" xmlns="http://www.w3.org/2000/svg">
<path d="M11.4686 54.0622L19.0311 11.2185C19.084 10.8951 19.2007 10.5855 19.3744 10.3077C19.5481 10.0299 19.7754 9.78948 20.043 9.60042C20.3106 9.41136 20.6132 9.27745 20.933 9.20651C21.2529 9.13557 21.5837 9.12901 21.9061 9.18722L39.1561 12.2185C39.8079 12.3403 40.3858 12.7131 40.7656 13.2565C41.1455 13.8 41.2969 14.4708 41.1874 15.1247L33.5936 58.2185C33.0736 61.1202 31.4384 63.7031 29.0379 65.4143C26.6375 67.1256 23.6626 67.8293 20.7499 67.3747C14.5311 66.3747 10.3749 60.281 11.4686 54.0622Z" stroke="white" stroke-width="3" stroke-linecap="round" stroke-linejoin="round"/>
<path d="M36.9678 39L59.749 30.7187C60.0587 30.6044 60.3881 30.5525 60.7179 30.5661C61.0478 30.5797 61.3717 30.6585 61.671 30.7979C61.9703 30.9374 62.2389 31.1348 62.4615 31.3786C62.6841 31.6225 62.8561 31.908 62.9678 32.2187L68.9678 48.6562C69.1891 49.278 69.1556 49.962 68.8746 50.5591C68.5936 51.1562 68.0879 51.618 67.4678 51.8437L26.3428 66.8125" stroke="white" stroke-width="3" stroke-linecap="round" stroke-linejoin="round"/>
<path d="M68.75 50.7812V65C68.75 65.663 68.4866 66.2989 68.0178 66.7678C67.5489 67.2366 66.913 67.5 66.25 67.5H22.5" stroke="white" stroke-width="3" stroke-linecap="round" stroke-linejoin="round"/>
<path d="M22.5 60C24.5711 60 26.25 58.3211 26.25 56.25C26.25 54.1789 24.5711 52.5 22.5 52.5C20.4289 52.5 18.75 54.1789 18.75 56.25C18.75 58.3211 20.4289 60 22.5 60Z" fill="white"/>
</svg>
